# xmcd
#
# Track frame offsets:
#	150
#	13414
#	28953
#	40397
#	52977
#	67087
#	79927
#	91907
#	101106
#	116198
#	130940
#	149948
#	167019
#	180741
#	198563
#	218311
#	231913
#	245134
#
# Disc length: 3419
#
# Revision: 5
# Processed by: cddbd v1.5.1PL0 Copyright (c) Steve Scherf et al.
# Submitted via: Grip 2.94
# Normalized: r3:TSWAP
#
DISCID=170d5912
DTITLE=Various Artist - Jazz and Blues (Collection Complete - Disc 3)
DYEAR=1900
DGENRE=
TTITLE0=Billie Hollyday - I Cover The Waterfront
TTITLE1=Glenn Miller - Serenade In Blue
TTITLE2=Bismarek "bix" Beiderbeeke - Copenhagen
TTITLE3=Duke Ellington - Diminuendo In Blues
TTITLE4=Ella Fitzgerald - Swinging On The Reservation
TTITLE5=Original Dixieland Jazzband - Sensation Rag
TTITLE6=Stan Getz - Don't Worry About Me
TTITLE7=Jelly Roll Morton - Meaple Leaf Rag
TTITLE8=Charlie Barnet - Cherokee
TTITLE9=Glenn Miller - String Of Peals
TTITLE10=Sonny Rollins - Lust For Life
TTITLE11=Weldon John "Jack" Teagarden - Meet Me Where They Pay The Blues
TTITLE12=Billie Holliday - My Man
TTITLE13=Earl Hines - Undecided
TTITLE14=Dizzy Gillespie - Blue Moon
TTITLE15=Louis Armstrong - A Kiss To Build A Dream On
TTITLE16=Sidney Bechet - Breathless Blues
TTITLE17=Woody Herman - Mambo Heard
EXTD=
EXTT0=
EXTT1=
EXTT2=
EXTT3=
EXTT4=
EXTT5=
EXTT6=
EXTT7=
EXTT8=
EXTT9=
EXTT10=
EXTT11=
EXTT12=
EXTT13=
EXTT14=
EXTT15=
EXTT16=
EXTT17=
PLAYORDER=
